<svg xmlns="http://www.w3.org/2000/svg" viewBox="0 0 783.79 822.86"><defs><style>.cls-1{fill:#ffff95;}</style></defs><g id="Laag_2" data-name="Laag 2"><g id="canvas"><path class="cls-1" d="M783.79,431a390.07,390.07,0,0,1-83.14,241.39q-5.45,7-11.23,13.7a393.48,393.48,0,0,1-113.68,91.08c-3,1.67-6.11,3.2-9.23,4.73a388.81,388.81,0,0,1-121.76,37.46,393,393,0,0,1-43.28,3.42q-4.77.12-9.57.12-5.67,0-11.3-.16A391,391,0,0,1,219.39,783c-3-1.46-6.1-3.06-9.16-4.65A393.07,393.07,0,0,1,95.5,687.38q-5.81-6.69-11.29-13.64A392,392,0,0,1,92.57,178q4.13-4.87,8.4-9.61c4.22-4.73,8.65-9.31,13.09-13.81,6-6,12.07-11.78,18.46-17.31A389.94,389.94,0,0,1,391.9,39.06c3.46,0,6.92,0,10.36.13a393.33,393.33,0,0,1,50.81,4.62c110.29,17.3,205.33,80.62,264.86,169.65q7.94,11.88,15,24.36a388.63,388.63,0,0,1,22.26,46q1.49,3.62,2.88,7.29A390.85,390.85,0,0,1,783.79,431Z"/></g><g id="illustratie"><path d="M389.38,812a38,38,0,0,1-7.59-.76,33.13,33.13,0,0,1-12.3-5.48,63.32,63.32,0,0,0-7.13-4.14,64.65,64.65,0,0,0-16.6-5.41,8.22,8.22,0,0,1,3-16.16,80.88,80.88,0,0,1,20.84,6.81,77.69,77.69,0,0,1,8.84,5.11c2.77,1.79,4,2.61,6.7,3.17a24.22,24.22,0,0,0,13.39-1.3,21,21,0,0,0,7.09-4.4,43.45,43.45,0,0,1,10.14-6.71,48,48,0,0,1,21.95-4.45,8.24,8.24,0,0,1,8.08,8.37,8.06,8.06,0,0,1-8.37,8.08,32.93,32.93,0,0,0-14.66,2.87,27.59,27.59,0,0,0-6.6,4.46,36.74,36.74,0,0,1-12,7.21A42.85,42.85,0,0,1,389.38,812Z"/><g id="neck"><path d="M758.39,397.19c-3.19-22.11-11-25.86-11.82-48-1.1-29,15.5-36.3,12.24-55a28.87,28.87,0,0,0-.72-3.13,40,40,0,0,0-2.88-7.29c-5.32-10.6-14.9-20.2-22-27.35-6.53-6.55-11.57-10.09-10.64-13.55.72-2.67,4.71-4.25,10.4-5.11,7-1,16.51-1,25.72-.6-5-33.82-17.67-81-54-118.27C638.34,50.79,524,46.94,453.07,43.81c-22.07-1-39.93-1.87-50.81-4.62-7-1.77-11.1-4.3-11.6-8.11-1.46-11.13,32.68-19.63,30.91-26-4.95-17.93-210.76,13.72-220.49,64.71-.78,4.11-2,17.52-11.75,23.7-8.93,5.68-21,2.74-29.73-.54-18.7,17.33-46.4,46.39-67,85.07a241.08,241.08,0,0,0-20.86,52.85c-5.11,19.67-9.39,39.58-2.37,62.17C81,330.6,119,346.93,114.43,355.29c-5,9.09-42.63-7.78-51.27,4.92-6.72,9.92,12.56,25.81,22,65.88,1.64,7-3.38,20,4.84,41.48,3.71,9.68,4.55,32.08,6.07,76.88.79,23.39.33,57.44,4.29,75.58h0c-5-.5-10.49.08-14.51,3.76-4.59,4.44-3.85,10.17-2.95,18,.5,3.6,1,8,1.31,13.78a82.91,82.91,0,0,1,.09,10c0,2-.09,4.37-.09,8.22q5.49,6.94,11.29,13.64c-.25-5.76-.29-10.5-.31-14,0-3.27,0-5.57.09-7.53a103.85,103.85,0,0,0-.17-11c-.33-6-.82-10.66-1.31-14.42-.49-3.94-1-8.12-.32-8.7s1.88-.9,3.6-.9a31,31,0,0,1,9.76,2,18.68,18.68,0,0,1,4.09,2.06,21,21,0,0,1,5.42,4.18l9.5,9.58-.16-13.52c-.17-17.14.33-30.58.66-39.1.16-2.62.32-5.33.48-8.2,1.07,4.68,2,9.75,3.13,15,2.61,13.69,5.81,29.26,9.75,42.13a97.1,97.1,0,0,0,6.15,15.41c17.29,33.78,63.2,48.94,99.19,48.94h1.55c40.25-.41,68.62-20.83,78.86-29.68,1-.73,22.54-18.93,43.12-73.11,2.46-5.74,4.76-13.45,1.15-20a14.9,14.9,0,0,0-2.79-3.77,5.66,5.66,0,0,1-1.88-3,8.19,8.19,0,0,1-.57-3.12,9.22,9.22,0,0,1,.4-2.87c1.07-.32,3.94-.9,12-1.31,3.93-.16,8-.16,13.53,0h4.26c5.25-.16,9.59-.16,13.52,0,9.18.41,11.65,1.14,11.65.74a10.77,10.77,0,0,1,0,6.56,6.92,6.92,0,0,1-1.89,3,15.19,15.19,0,0,0-2.87,3.77c-3.53,6.56-1.23,14.27,1.15,20C437,660.77,458.42,679,459.32,679.7c13.13,10.91,40.75,29.27,78.95,29.68,36.56.33,83.2-14.68,100.67-48.94,4.09-7.71,7.7-18.77,10.9-33.37,1.88-8.11,3.52-16.31,5.08-24.17,1.39-7,2.87-14.44,4.51-20.91.49,5.24.82,9.83,1,14.1.41,6.72.82,17.87.82,32.21v17.47l9.18-8.37A21.71,21.71,0,0,1,675.5,634c.82-.32,1.63-.74,2.7-1.15a42.12,42.12,0,0,1,8.12-1.88c2.79-.33,4.42.25,5,.81s.17,4.68-.25,8.7c-.49,3.76-1.06,8.44-1.39,14.42a103.85,103.85,0,0,0-.17,11c.08,2,.17,4.26.17,8,0,3.06-.06,7.18-.26,12.17q5.77-6.72,11.23-13.7c0-2.89-.09-5-.15-6.83a87.39,87.39,0,0,1,.16-10v-.09c.25-5.65.82-10.09,1.23-13.69,1-7.88,1.64-13.52-2.95-18a13.49,13.49,0,0,0-7.18-3.5c2.74-17.47,14.76-60.22,11.31-78.27,3.93,1.77,24.32-36.92,43.93-79.74C760.19,433.48,760.48,411.66,758.39,397.19Zm-424.81,251A101.87,101.87,0,0,1,296.27,684c-32.12,17.8-63.76,12.23-73.94,10.33-12-2.45-40.82-7.87-58.6-31.72-6.24-8.2-10.17-17.22-13.12-26.4-1.72-4.66-3-9.42-4.35-13.84-3.76-13.12-1.71-11.31-7.53-35.5a215.43,215.43,0,0,1-5-30.74c-.73-9.18-.4-10.83.33-12.38,2.88-6,9.43-8.78,36-13.85,10.75-2.05,19.35-3.78,30-5.25,4.18-.57,8.85-1.15,13.94-1.89,13.44-1.48,20.24-2.21,28.11-2.46,10.83-.16,28.45-.33,49.11,5.66,15.17,4.34,25.08,7.13,34.68,15.74,18.93,16.89,21,41.23,21.71,50.08C350.05,620.28,337.84,641.34,333.58,648.23Zm312.9-92.64v.25a221.65,221.65,0,0,1-4.93,30c-3.19,12.7-3.93,18.51-4.67,22.62-.4,2.63-.73,4.76-1.3,7.54-.17.74-.58,1.64-.75,2.62l-.73,2.46c-3.77,13.28-7.87,27-16.72,38.78-16.32,22-43.45,27.38-55.67,29.84-26.64,5-50.41,1.63-70.9-9.76A97.91,97.91,0,0,1,455.23,646C444.9,628.72,440.39,610.6,442,592.15c.74-8.6,2.62-31.31,20.25-46.81,8.6-7.86,17.78-10.49,32.79-14.83,15.9-4.68,29.59-5.25,40.5-5.25h7.12c7.62.17,14.44.9,27.71,2.47a390,390,0,0,1,43.53,6.88c2.95.57,5.81,1.15,8.44,1.55,18.53,3.94,22.62,6.32,24.35,9.93C646.81,546.66,647.38,547.56,646.48,555.59Zm-24-40.24c-4.68-1.15-9.92-2.3-15.41-3.61a264.88,264.88,0,0,0-67.47-4.84c-22.46,1.31-47.79,2.79-75.75,15-5.08,2.22-9.18,4.26-13.11,6.39-10.08,5-17.05,8.37-28.69,8.62-2.46,0-4.84-.25-8.77-.58a49.72,49.72,0,0,1-8.45-.42c-2.46-.15-5.07-.32-10.16-.56h-4.84c-4.91.24-7.54.41-9.92.56a71.56,71.56,0,0,1-8.28.42h-1.3a62.88,62.88,0,0,1-8.45.58c-10.66-.25-17.46-3.61-27.71-8.62-3.93-2.13-8.12-4.17-13.19-6.39-27.88-12.21-53.2-13.69-76.49-15a258.85,258.85,0,0,0-39.92.9c-8,1-17.05,2.05-26.8,4.19l-13,2.78c-11.06,2.46-21,4.67-29.18,6.64,2.3-15.33,5.16-33.12,8.44-53.94l1.23-7.78c5.41-33.62,7.62-44,13.86-58C180,355.16,219.88,330.16,233,322a205.49,205.49,0,0,1,17.95-10.08H251l.27-.13c11.14-2.53,23.37-3.69,40.1-5.27,18.67-1.76,29.09-.28,73.22,2.45,14.91.91,37.65,2.25,65.9,3.65a273,273,0,0,1,35,9.19c22,7.39,30.4,13.38,71.14,36C575.64,379.33,603,395,621.9,414.67a78.31,78.31,0,0,1,12.42,17.51c1.49,2.79,2.85,5.61,4.08,8.41,1,5.45,2,11.71,3.15,19.1l3.13,20c2.45,15.82,4.66,29.67,6.64,42.05C643.28,519.86,633.52,517.64,622.46,515.35Z"/></g><g id="eyes"><g id="left_eye" data-name="left eye"><path d="M262.1,602.35a25.17,25.17,0,1,1-38.74-.06A63.07,63.07,0,0,0,207,611c1.9-7.12,7.18-13.28,13.64-17.33a41.86,41.86,0,0,1,44,0c6.46,4,11.76,10.19,13.65,17.33A63,63,0,0,0,262.1,602.35Z"/><path id="left_brow" data-name="left brow" d="M308.36,589.09c-12.94,1-23.68-.39-34.37-1.65-10.58-1.06-20.35-5.94-31.06-7.69A197.91,197.91,0,0,0,210.39,577c-11.08-.23-22.21,1-33.49,2.69a1.18,1.18,0,0,1-1.36-1,1.2,1.2,0,0,1,.63-1.24A158.21,158.21,0,0,1,209,565.38,153.56,153.56,0,0,1,244.3,561c11.9-.18,24.57-1.08,35.86,3.77,11.2,4.65,21.75,11.39,29.23,22.19a1.36,1.36,0,0,1-.34,1.88A1.51,1.51,0,0,1,308.36,589.09Z"/></g><g id="right_eye" data-name="right eye"><path d="M563.1,602.13a25.17,25.17,0,1,1-38.44,0,63.2,63.2,0,0,0-16.74,8.74c1.95-7.16,7.33-13.31,13.86-17.32a42.66,42.66,0,0,1,22.12-6.27,42.08,42.08,0,0,1,22.16,6.21c6.53,4.05,11.88,10.22,13.81,17.38A63.55,63.55,0,0,0,563.1,602.13Z"/><path id="right_brow" data-name="right brow" d="M477.21,587c7.48-10.8,18-17.54,29.23-22.19,11.29-4.85,24-3.95,35.86-3.77a153.56,153.56,0,0,1,35.35,4.37,158.21,158.21,0,0,1,32.78,12.11,1.19,1.19,0,0,1-.73,2.23c-11.28-1.7-22.41-2.92-33.5-2.69a197.88,197.88,0,0,0-32.53,2.72c-10.71,1.75-20.48,6.63-31.07,7.69-10.68,1.26-21.42,2.61-34.36,1.65a1.36,1.36,0,0,1-1-2.12Z"/></g></g></g></g></svg>