<svg xmlns="http://www.w3.org/2000/svg" viewBox="0 0 107.82 135.27"><defs><style>.cls-1{fill:#ffff95;}.cls-2{opacity:0.24;}</style></defs><g id="Laag_2" data-name="Laag 2"><g id="canvas"><path class="cls-1" d="M107.82,81.36A53.89,53.89,0,0,1,79.2,129c-.42.23-.84.44-1.27.65a54,54,0,0,1-47.75.15c-.42-.2-.84-.42-1.26-.64a53.92,53.92,0,0,1-15-83.9c.58-.65,1.19-1.28,1.8-1.9.82-.82,1.66-1.62,2.54-2.38a53.9,53.9,0,0,1,89.59,40.4Z"/></g><g id="illustratie"><path d="M91.46,76.1a1.66,1.66,0,0,0-.88-.43,2.5,2.5,0,0,0-.78,0,5.78,5.78,0,0,0-1.34.31l-.27.11c0-1.5,0-2.66-.09-3.41,0-1.07-.17-2.33-.39-4,0-.24-.07-.5-.1-.76-.14-1.12-.34-2.39-.56-3.86a1,1,0,0,0,0-.16c-.25-1.6-.54-3.43-.87-5.52l-.38-2.44c-.66-4.16-1-5.55-1.79-7.41a24.21,24.21,0,0,0-9.52-10.32c-7.17-4.5-14.3-4.53-20.09-4.55-5.54,0-13.14-.06-20.47,4.55a24.21,24.21,0,0,0-9.52,10.32c-.86,1.93-1.14,3.39-1.79,7.41l-.15,1c-.43,2.7-.8,5-1.09,7l0,.17c-.24,1.61-.45,3-.59,4.19,0,.24-.07.47-.1.7-.19,1.48-.31,2.73-.36,3.83,0,.83-.08,2-.09,3.52a2.89,2.89,0,0,0-.5-.22,5.2,5.2,0,0,0-1.25-.32,2.23,2.23,0,0,0-1.77.46c-.56.54-.47,1.24-.36,2.19.06.44.12,1,.16,1.68a10.11,10.11,0,0,1,0,1.22c0,.25,0,.54,0,1a33.77,33.77,0,0,0,1.18,9c.3,1,.57,1.78,1.18,3.39,1.35,3.59,1.94,4.27,2.52,4.74a5.27,5.27,0,0,0,1.92,1l.07.37c.13.64.27,1.36.42,2.17.27,1.38.47,2.51.65,3.47a27.22,27.22,0,0,0,1.71,6.69,29.75,29.75,0,0,0,3.32,5.83c.46.64.92,1.23,1.35,1.77s.85,1,1.22,1.48a39.25,39.25,0,0,0,5.9,5.67c2.21,1.66,3.66,2.76,6,3.45,1.39.41,3.38.47,7.34.57h.36c1.37,0,2.37.07,3.23.07.71,0,1.32,0,1.95-.07a23.59,23.59,0,0,0,6.64-1.15,21,21,0,0,0,6-3.43,40.11,40.11,0,0,0,5.88-5.66l.18-.2c.7-.76,1.33-1.46,1.9-2.1s.91-1,1.3-1.45a24.77,24.77,0,0,0,3.58-4.75,18,18,0,0,0,1.6-5.83c.19-1.13.43-2.54.77-4.37l.52-2.62a5.45,5.45,0,0,0,1.65-.88c.59-.47,1.18-1.15,2.53-4.75.6-1.61.88-2.37,1.17-3.39a33.93,33.93,0,0,0,1.19-9.1c0-.42,0-.71,0-1a10.43,10.43,0,0,1,0-1.22h0c0-.69.1-1.23.15-1.67C91.94,77.33,92,76.64,91.46,76.1Zm-1,2c-.06.46-.13,1-.17,1.76a12.61,12.61,0,0,0,0,1.34c0,.24,0,.52,0,1a32.38,32.38,0,0,1-1.13,8.67c-.28,1-.55,1.72-1.14,3.29-1.33,3.55-1.82,3.94-2.11,4.17a4,4,0,0,1-1.56.75l-.42.1-.67,3.45c-.16.85-.3,1.6-.42,2.28s-.26,1.5-.36,2.11c-.49,2.86-.65,3.82-1.48,5.46s-2.76,3.8-6.57,8l-.18.2a39.43,39.43,0,0,1-5.69,5.49A19.53,19.53,0,0,1,63,129.42a23,23,0,0,1-6.29,1.08c-1.35.1-2.59.06-5.05,0h-.37c-3.84-.11-5.77-.16-7-.52a16.49,16.49,0,0,1-5.57-3.24A36.6,36.6,0,0,1,33,121.19a33.31,33.31,0,0,1-5.63-8.66,26.31,26.31,0,0,1-1.63-6.41c0-.1,0-.2-.06-.3-.15-.89-.35-1.94-.58-3.18-.16-.82-.3-1.54-.43-2.18l-.24-1.21L24,99.16a4.29,4.29,0,0,1-1.79-.82c-.29-.23-.77-.63-2.11-4.17-.59-1.57-.86-2.31-1.14-3.29a32.12,32.12,0,0,1-1.13-8.73c0-.4,0-.68,0-.92a12.61,12.61,0,0,0,0-1.34c0-.73-.1-1.3-.16-1.76a2.78,2.78,0,0,1,0-1.06A.63.63,0,0,1,18,77a3.73,3.73,0,0,1,1.19.25,2.34,2.34,0,0,1,.5.25,2.55,2.55,0,0,1,.66.51l1.16,1.17,0-1.65c0-2.09,0-3.73.08-4.77,0-.32,0-.65.06-1,.08-1,.21-2.12.39-3.42s.36-2.66.63-4.33c0-.12,0-.24,0-.36.28-1.87.63-4,1-6.58l.15-1c.66-4.1.93-5.37,1.69-7.07a22.81,22.81,0,0,1,9-9.73,24.13,24.13,0,0,1,2.19-1.23h0c6.28-3.17,12.49-3.15,17.61-3.13,5.56,0,12.48,0,19.33,4.36a22.81,22.81,0,0,1,9,9.73,17.61,17.61,0,0,1,1.3,4.72c.12.67.25,1.44.39,2.35l.38,2.44c.3,1.93.57,3.62.81,5.13l.06.38c.23,1.52.42,2.84.57,4s.28,2.14.36,3c.06.64.1,1.2.12,1.72,0,.82.1,2.18.1,3.93v2.13l1.12-1a2.59,2.59,0,0,1,.62-.42l.33-.14a5,5,0,0,1,1-.23.79.79,0,0,1,.61.1C90.62,77.14,90.55,77.64,90.5,78.13Z"/><path id="hair" d="M97.27,42.6c.1,2.7,1,3.15,1.44,5.85a13.85,13.85,0,0,1-1.39,7.94c-2.39,5.23-4.88,10-5.36,9.73-.15-.07-.13-.63-.12-.63l.12.63c.45,2.35-1.25,8.13-1.43,9.93a.93.93,0,0,1-.11.39c-.37.59-1.34.27-2.25.72a2.56,2.56,0,0,0-1.08,1.12,23.86,23.86,0,0,0-.1-9c-.19-1.39-.39-2.78-.58-4.17a29.85,29.85,0,0,0-1.25-8.27,22,22,0,0,0-1.58-4.11,9.41,9.41,0,0,0-1.52-2.13c-2.3-2.4-5.64-4.32-10.39-7-5-2.76-6-3.49-8.68-4.39a34.53,34.53,0,0,0-4.27-1.12c-3.45-.17-6.22-.33-8-.44-5.39-.34-6.66-.52-8.93-.3-3.35.31-5.22.49-7.45,1.49C28.07,41.69,25.59,48,25,49.3c-.81,1.89-1.09,3.33-1.74,7.53-.49,3.24-.91,5.94-1.23,8.21l-.63,4.52c-.25,1.91-.39,3.39-.45,4.64a9.66,9.66,0,0,0-.08,2.7c.18.84.54,1.6.42,1.66s-.51-.83-1.52-1.26a2.83,2.83,0,0,0-.55-.16c-1.37-.38-1.21-6.79-1.34-10.72-.18-5.47-.29-8.2-.74-9.38-1-2.62-.39-4.21-.59-5.06-1.16-4.89-3.51-6.83-2.69-8,1.06-1.55,5.65.51,6.26-.6s-4.08-3-5.5-7.59c-.86-2.76-.34-5.19.29-7.59,2.07-8,7.49-13.83,10.72-16.82,1.06.4,2.53.76,3.62.06S30.63,9,30.73,8.51C31.91,2.29,57-1.57,57.62.62c.22.78-3.94,1.81-3.77,3.17.46,3.51,26.08-1.85,38.31,10.72,4.43,4.55,6,10.3,6.59,14.43-2-.09-4.21,0-4.41.69-.11.43.5.86,1.3,1.66,1.14,1.15,2.81,2.82,3.12,4.61C99.16,38.17,97.14,39.07,97.27,42.6Z"/><path d="M53.7,99.05a4.8,4.8,0,0,1-.93-.09,4.11,4.11,0,0,1-1.5-.67,8,8,0,0,0-.87-.5,7.48,7.48,0,0,0-2-.66A1,1,0,0,1,47.57,96a1,1,0,0,1,1.17-.8,9.24,9.24,0,0,1,2.54.83,8.33,8.33,0,0,1,1.08.62,2.11,2.11,0,0,0,.82.39,3,3,0,0,0,1.63-.16,2.52,2.52,0,0,0,.87-.54,5.27,5.27,0,0,1,1.24-.82,5.91,5.91,0,0,1,2.67-.54,1,1,0,0,1,1,1,1,1,0,0,1-1,1,3.85,3.85,0,0,0-1.79.35,3.09,3.09,0,0,0-.81.54,4.43,4.43,0,0,1-1.45.88A5.24,5.24,0,0,1,53.7,99.05Z"/><g id="eyes"><g id="left_eye" data-name="left eye"><circle id="left_pupil" data-name="left pupil" cx="36.92" cy="74.16" r="2.87"/><path id="left_lash" data-name="left lash" d="M32.85,73.31a3.48,3.48,0,0,1,1.56-2,4.77,4.77,0,0,1,5,0,3.48,3.48,0,0,1,1.56,2,7.38,7.38,0,0,0-2-1,6.64,6.64,0,0,0-2-.32A6.75,6.75,0,0,0,32.85,73.31Z"/><path id="left_brow" data-name="left brow" d="M44.39,70.82a18.8,18.8,0,0,1-3.91-.19c-1.21-.12-2.32-.67-3.54-.87a22.71,22.71,0,0,0-3.7-.31,21.55,21.55,0,0,0-3.82.31.14.14,0,0,1-.08-.26,17.73,17.73,0,0,1,3.73-1.38,18.07,18.07,0,0,1,4-.5,9.88,9.88,0,0,1,4.08.43,7.28,7.28,0,0,1,3.33,2.53.15.15,0,0,1,0,.21A.11.11,0,0,1,44.39,70.82Z"/></g><g id="right_eye" data-name="right eye"><circle id="right_pupil" data-name="right pupil" cx="71.22" cy="74.16" r="2.87"/><path id="right_lash" data-name="right lash" d="M67.12,73.31a3.51,3.51,0,0,1,1.58-2,4.82,4.82,0,0,1,2.52-.71,4.75,4.75,0,0,1,2.52.71,3.47,3.47,0,0,1,1.58,2,7.12,7.12,0,0,0-2-1A6.38,6.38,0,0,0,71.22,72a6.71,6.71,0,0,0-2.07.31A7.12,7.12,0,0,0,67.12,73.31Z"/><path id="right_brow" data-name="right brow" d="M63.62,70.58A7.39,7.39,0,0,1,67,68.05,9.93,9.93,0,0,1,71,67.62,17.53,17.53,0,0,1,78.8,69.5a.14.14,0,0,1-.09.26,21.44,21.44,0,0,0-3.81-.31,22.74,22.74,0,0,0-3.71.31c-1.22.2-2.33.75-3.53.87a18.87,18.87,0,0,1-3.92.19.15.15,0,0,1-.14-.16A.19.19,0,0,1,63.62,70.58Z"/></g></g><g id="neck"><path d="M30.79,120.65a72.38,72.38,0,0,1-.48,8.11c0,.36-.08.7-.13,1-.42-.2-.84-.42-1.26-.64l.06-.54a69.5,69.5,0,0,0,.46-9.72v0a.63.63,0,0,1,.24-.52.6.6,0,0,1,.41-.16.65.65,0,0,1,.68.65c0,.32,0,.64,0,1S30.79,120.36,30.79,120.65Z"/><path d="M79.2,129c-.42.23-.84.44-1.27.65,0-.28-.07-.58-.1-.88a74,74,0,0,1-.47-9.46c0-.39,0-.79,0-1.18v0a.68.68,0,0,1,.59-.64h.09a.68.68,0,0,1,.6.4.72.72,0,0,1,.06.29,75.69,75.69,0,0,0,.43,10.47C79.17,128.73,79.18,128.86,79.2,129Z"/></g><g id="beard"><path id="beard-2" data-name="beard" class="cls-2" d="M82.88,104.92a61.72,61.72,0,0,0-3.77,4.89c-.81,1.17-2,2.92-3.28,2.78a2.52,2.52,0,0,1-1.59-1.24c-1.12-1.78.48-3.4-.19-6.9A3.34,3.34,0,0,0,73.6,103c-1.1-1.45-3.41-.23-7-1.35-1.47-.45-1.28-.71-2.93-1.19l-.16,0a19.77,19.77,0,0,0-4.75-.55c-2.77.06-2.57.54-4.81.55s-2.11-.5-4.91-.55a20.85,20.85,0,0,0-4.71.53l-.21.06c-1.65.48-1.46.74-2.92,1.19-3.59,1.12-5.9-.1-7,1.35a3.36,3.36,0,0,0-.44,1.43c-.68,3.5.93,5.12-.19,6.9a2.52,2.52,0,0,1-1.6,1.24c-1.31.14-2.46-1.61-3.27-2.78s-1.75-2.43-3-4c-.32-.4-.68-.83-1.05-1.26.86,4.76,1,6,2,8.24a30.54,30.54,0,0,0,3.11,5.54c.38.52.75,1,1.1,1.45.57.73,1.11,1.37,1.58,1.93a36.92,36.92,0,0,0,5.79,5.57c2.2,1.65,3.59,2.69,5.79,3.34,1.35.4,3.41.44,7.53.56,2.49.06,3.74.09,5.12,0a23,23,0,0,0,6.46-1.13,20.34,20.34,0,0,0,5.79-3.33,39.52,39.52,0,0,0,5.79-5.57c1.05-1.16,2-2.16,2.75-3l.59-.66a23.67,23.67,0,0,0,3.51-4.65c1.12-2.21,1.1-3.36,2-8.63Zm-46.6,2.7c.52-.42.84-.24,2.88-.78,1.08-.3,1.62-.52,2.18-.7a24.06,24.06,0,0,1,8.79-.65,30.66,30.66,0,0,0,3.78.42,27,27,0,0,0,3.76-.42,26,26,0,0,1,8.78.65c.57.18,1.11.4,2.19.7,2,.54,2.36.36,2.87.78,1,.86.94,2.6.85,4.08a13.15,13.15,0,0,1-.9,3.82A14.49,14.49,0,0,1,69.29,120c-.2.23-.37.43-.56.62a15.7,15.7,0,0,1-4.36,3c-2.12,1.08-3.18,1.62-4.32,1.69a24.7,24.7,0,0,1-3.17-.24l-3-.35h0l-3,.35a24.7,24.7,0,0,1-3.18.24c-1.13-.07-2.2-.61-4.32-1.69a15.76,15.76,0,0,1-4.35-3c-.19-.19-.37-.39-.56-.62a14.73,14.73,0,0,1-2.18-4.52,13.15,13.15,0,0,1-.9-3.82C35.35,110.22,35.25,108.48,36.28,107.62Z"/><path class="cls-2" d="M54.07,116.41c1.18,0,3.4.07,3.51.64a.45.45,0,0,1,0,.21c-.12.38-.65.51-1.37.65-.53.1-1.24.22-2.11.3h0c-.86-.08-1.58-.2-2.1-.3-.72-.14-1.26-.27-1.38-.65a.5.5,0,0,1,0-.21c.11-.57,2.33-.64,3.5-.64Z"/></g><path id="mouth" d="M42.11,108.69c2.1.31,4.09.63,6.06.85a58.6,58.6,0,0,0,5.9.31,55.64,55.64,0,0,0,5.89-.32c2-.21,4-.53,6.06-.84a16.8,16.8,0,0,1-5.63,2.88,21.14,21.14,0,0,1-6.32,1,21.41,21.41,0,0,1-6.32-1A17,17,0,0,1,42.11,108.69Z"/><path d="M89.36,65v0a1.66,1.66,0,0,0-1.06-.64,6.46,6.46,0,0,0-.66-.16L87.05,64l-.68-.17-.15,0-.57-.13c-1-.23-2.17-.5-3.52-.78l-1.88-.44A32.3,32.3,0,0,0,72,61.84a25.27,25.27,0,0,0-9.24,1.83c-.62.27-1.12.52-1.6.78a7.41,7.41,0,0,1-3.5,1c-.3,0-.59,0-1.07-.07a6.07,6.07,0,0,1-1-.05l-1.24-.07h-.59l-1.21.07a8.88,8.88,0,0,1-1,.05h-.16a7.7,7.7,0,0,1-1,.07,7.44,7.44,0,0,1-3.38-1c-.48-.26-1-.51-1.61-.78A25.29,25.29,0,0,0,36,61.84a31.43,31.43,0,0,0-4.87.11c-1,.12-2.08.25-3.27.51l-1.58.34c-1.35.3-2.56.57-3.56.81l-.48.11-.37.09-.56.13-.15,0c-.64.13-1.12.25-1.39.32a1.82,1.82,0,0,0-1,.66,1.34,1.34,0,0,0-.16,1,5.27,5.27,0,0,1,.05.71v.45a1.31,1.31,0,0,0,.29,1,1.42,1.42,0,0,0,1.12.23,2.45,2.45,0,0,1,.56.45l.18.19.09.11a5.78,5.78,0,0,1,.43,1.19h0c.11.41.22.88.33,1.39s.25,1.19.38,1.83a52,52,0,0,0,1.19,5.14A11.86,11.86,0,0,0,24,80.57c2.11,4.12,7.71,6,12.1,6h.19a15.32,15.32,0,0,0,9.62-3.62c.12-.09,2.75-2.31,5.26-8.92a2.81,2.81,0,0,0,.14-2.44A1.83,1.83,0,0,0,51,71.1a.69.69,0,0,1-.23-.37,1,1,0,0,1-.07-.38,1.13,1.13,0,0,1,.05-.35,7.1,7.1,0,0,1,1.46-.16c.48,0,1,0,1.65,0h.52c.64,0,1.17,0,1.65,0,1.12,0,1.42.14,1.42.09a1.3,1.3,0,0,1,0,.8.83.83,0,0,1-.23.37,1.83,1.83,0,0,0-.35.46A2.88,2.88,0,0,0,57,74c2.54,6.61,5.15,8.83,5.26,8.92a15.48,15.48,0,0,0,9.63,3.62c4.46,0,10.15-1.79,12.28-6a16.49,16.49,0,0,0,1.33-4.07c.23-1,.43-2,.62-3s.35-1.76.55-2.55a12.75,12.75,0,0,1,.41-1.42h0a2.3,2.3,0,0,1,.34-.64,2.41,2.41,0,0,1,.32-.32,2.6,2.6,0,0,1,.32-.23,1.38,1.38,0,0,0,1.17-.25,1.31,1.31,0,0,0,.27-1v-.45a4,4,0,0,1,0-.71A1.43,1.43,0,0,0,89.36,65ZM46.89,79.08a12.43,12.43,0,0,1-4.55,4.37,13.37,13.37,0,0,1-9,1.26c-1.46-.3-5-1-7.15-3.87a10.54,10.54,0,0,1-1.6-3.22c-.21-.57-.37-1.15-.53-1.69-.46-1.6-.21-1.38-.92-4.33a26.42,26.42,0,0,1-.61-3.75c-.09-1.12-.05-1.32,0-1.51.35-.73,1.15-1.07,4.39-1.69,1.31-.25,2.36-.46,3.66-.64l1.7-.23c1.64-.18,2.47-.27,3.43-.3a19.56,19.56,0,0,1,6,.69A9.63,9.63,0,0,1,46,66.09,9,9,0,0,1,48.6,72.2,11.29,11.29,0,0,1,46.89,79.08Zm38.17-11.3v0a27.16,27.16,0,0,1-.6,3.66c-.39,1.55-.48,2.26-.57,2.76,0,.32-.09.58-.16.92,0,.09-.07.2-.09.32l-.09.3a13.93,13.93,0,0,1-2,4.73c-2,2.68-5.3,3.34-6.79,3.64A12.57,12.57,0,0,1,66.07,83a12,12,0,0,1-4.34-4.14,10.85,10.85,0,0,1-1.62-6.57,8.29,8.29,0,0,1,2.47-5.71c1.05-1,2.17-1.28,4-1.81a16.9,16.9,0,0,1,4.94-.64h.87c.93,0,1.76.11,3.38.3a48,48,0,0,1,5.31.84l1,.19c2.26.48,2.76.77,3,1.21C85.1,66.69,85.17,66.8,85.06,67.78Z"/></g></g></svg>