<svg xmlns="http://www.w3.org/2000/svg" viewBox="0 0 618.61 958.82"><defs><style>.cls-1{opacity:0.24;}</style></defs><g id="Laag_2" data-name="Laag 2"><g id="illustratie"><path d="M290.52,720.06a33.12,33.12,0,0,1-6.73-.68,29.14,29.14,0,0,1-10.91-4.86,56.23,56.23,0,0,0-6.32-3.67,57.11,57.11,0,0,0-14.72-4.79,7.29,7.29,0,1,1,2.66-14.33,71.79,71.79,0,0,1,18.48,6,69.1,69.1,0,0,1,7.84,4.54c2.46,1.59,3.57,2.31,5.94,2.81A21.43,21.43,0,0,0,298.63,704a18.72,18.72,0,0,0,6.29-3.91,38.72,38.72,0,0,1,9-5.95,42.47,42.47,0,0,1,19.46-3.94,7.29,7.29,0,0,1,7.16,7.42,7.12,7.12,0,0,1-7.41,7.16,29.24,29.24,0,0,0-13,2.55,24.51,24.51,0,0,0-5.85,4,32.42,32.42,0,0,1-10.6,6.4A38,38,0,0,1,290.52,720.06Z"/><g id="eyes"><g id="left_eye" data-name="left eye"><path d="M184.59,525.82a20.83,20.83,0,1,1-32.07-.05A52,52,0,0,0,139,533c1.57-5.9,5.94-11,11.29-14.35a34.67,34.67,0,0,1,36.46,0c5.35,3.34,9.74,8.44,11.3,14.35A52.19,52.19,0,0,0,184.59,525.82Z"/><path id="left_brow" data-name="left brow" d="M222.89,514.83c-10.72.8-19.61-.32-28.45-1.36-8.77-.88-16.85-4.92-25.72-6.37a168.6,168.6,0,0,0-54.67,0,1,1,0,0,1-.6-1.84,130.61,130.61,0,0,1,27.14-10,126.58,126.58,0,0,1,29.26-3.62c9.85-.15,20.34-.9,29.69,3.12,9.28,3.85,18,9.43,24.2,18.37a1.13,1.13,0,0,1-.28,1.56A1.21,1.21,0,0,1,222.89,514.83Z"/></g><g id="right_eye" data-name="right eye"><path d="M433.8,525.64a20.83,20.83,0,1,1-31.82,0,52.15,52.15,0,0,0-13.86,7.24c1.61-5.93,6.07-11,11.47-14.34a35.21,35.21,0,0,1,18.32-5.19,34.76,34.76,0,0,1,18.34,5.14c5.41,3.35,9.84,8.46,11.44,14.39A52.75,52.75,0,0,0,433.8,525.64Z"/><path id="right_brow" data-name="right brow" d="M362.69,513.08c6.19-8.94,14.92-14.52,24.2-18.37,9.35-4,19.83-3.27,29.69-3.12a126.58,126.58,0,0,1,29.26,3.62,130.61,130.61,0,0,1,27.14,10,1,1,0,0,1,.42,1.32,1,1,0,0,1-1,.52,168.6,168.6,0,0,0-54.67,0c-8.87,1.45-16.95,5.49-25.72,6.37-8.85,1-17.74,2.16-28.45,1.36a1.11,1.11,0,0,1-1.05-1.18A1.26,1.26,0,0,1,362.69,513.08Z"/></g></g><g id="neck"><path d="M617.76,352.23c-2.83-19.61-9.74-22.93-10.48-42.55-1-25.69,13.74-32.19,10.85-48.74-2.26-13-14.38-25.13-22.72-33.49-5.79-5.81-10.26-8.95-9.43-12,1.42-5.28,17.2-5.73,32-5.06-4.45-30-15.67-71.8-47.87-104.88C481.21,14.13,295,53.06,291.66,27.57c-1.29-9.87,29-17.41,27.41-23.08-4.39-15.9-186.9,12.17-195.53,57.39-.69,3.64-1.81,15.53-10.42,21-7.92,5-18.65,2.43-26.36-.48C63.31,104.14,23.9,146.67,8.82,204.72c-4.53,17.44-8.33,35.1-2.1,55.13,10.35,33.33,44,47.81,40,55.22-4.4,8.06-37.8-6.9-45.46,4.37-6,8.79,11.13,22.88,19.53,58.42,1.46,6.16-3,17.71,4.29,36.78,3.29,8.59,4,28.45,5.39,68.18.7,20.74.29,50.94,3.8,67h0c-4.43-.44-9.3.07-12.86,3.34-4.07,3.93-3.42,9-2.62,15.92.44,3.2.87,7.13,1.16,12.22a74.3,74.3,0,0,1,.08,8.86c0,1.82-.08,3.93-.08,7.42.08,10.76.29,36,8.58,65.72,2.18,7.41,4.15,12.94,8.58,24.64,9.81,26.1,14.1,31,18.32,34.46a38.32,38.32,0,0,0,14,7.05l.5,2.69c1,4.65,2,9.88,3.06,15.77,2,10,3.41,18.25,4.72,25.23,4.44,24.5,6.11,33.65,12.43,48.63a216.7,216.7,0,0,0,24.14,42.38,503.89,503.89,0,0,1-3.35,70.66c-.14,1.31-.29,2.62-.43,3.93,3,1.59,6.1,3.19,9.16,4.65.36-2.33.65-4.8.94-7.42A523.77,523.77,0,0,0,124,877c3.13,3.92,6.18,7.49,8.87,10.76C142.32,898.85,157.3,915,175.76,929c16.07,12.07,26.61,20.07,43.62,25.08,10.1,3,24.57,3.42,53.36,4.15l2.61.07c10,.29,17.23.51,23.48.51,5.16,0,9.6-.15,14.18-.51,15-1,30.46-2.11,48.27-8.36,19-6.69,31.4-16,43.4-24.93,10.68-8,21.08-17.31,42.74-41.15l1.31-1.45c5.09-5.53,9.67-10.62,13.81-15.27A537.57,537.57,0,0,0,466,935.92c.22,2.18.51,4.36.72,6.4,3.13-1.53,6.18-3.06,9.24-4.73-.15-.87-.22-1.81-.37-2.76a550.14,550.14,0,0,1-3.12-76.11,5.21,5.21,0,0,0-.44-2.11c13.45-15.27,21.45-25.44,26-34.53,6.61-13.23,8.06-21.74,11.63-42.38,1.38-8.21,3.12-18.46,5.59-31.77l3.78-19a39.78,39.78,0,0,0,12-6.4c4.29-3.42,8.58-8.36,18.39-34.53,4.36-11.7,6.4-17.23,8.51-24.64,8.36-29.66,8.5-54.89,8.65-66.16,0-3-.08-5.16-.15-7a76.59,76.59,0,0,1,.15-8.86v-.08c.22-5,.72-8.94,1.09-12.14.87-7,1.45-12-2.62-15.92a12,12,0,0,0-6.37-3.11c2.43-15.49,13.09-53.4,10-69.41,3.49,1.57,21.57-32.74,39-70.71C619.36,384.41,619.61,365.06,617.76,352.23ZM73,414.55l1.09-6.9c4.8-29.81,6.76-39,12.29-51.4,18.46-41.29,53.86-63.46,65.49-70.73a178.48,178.48,0,0,1,15.92-8.94h.08l.24-.12c9.88-2.24,20.72-3.27,35.56-4.67,16.55-1.56,25.79-.25,64.93,2.17,13.22.81,33.39,2,58.44,3.24a240.85,240.85,0,0,1,31.06,8.15c19.51,6.55,27,11.86,63.09,31.89,34.54,19.15,58.81,33,75.56,50.49a69.25,69.25,0,0,1,11,15.53c1.32,2.47,2.52,5,3.61,7.46.86,4.83,1.8,10.38,2.8,16.93l2.77,17.74c2.18,14,4.14,26.31,5.89,37.29C515.68,461,507,459,497.22,457c-4.15-1-8.8-2-13.67-3.2a234.92,234.92,0,0,0-59.83-4.29c-19.92,1.16-42.38,2.47-67.17,13.3-4.51,2-8.14,3.78-11.63,5.67-8.94,4.44-15.12,7.42-25.44,7.64-2.18,0-4.29-.22-7.78-.51a44.47,44.47,0,0,1-7.49-.37c-2.18-.14-4.5-.29-9-.5h-4.29c-4.36.21-6.69.36-8.8.5a63.9,63.9,0,0,1-7.34.37h-1.16a56.17,56.17,0,0,1-7.49.51c-9.45-.22-15.48-3.2-24.57-7.64-3.49-1.89-7.2-3.7-11.7-5.67C205.13,452,182.67,450.68,162,449.52a229.41,229.41,0,0,0-35.4.8c-7.13.87-15.12,1.82-23.77,3.71L91.36,456.5c-9.81,2.18-18.61,4.14-25.88,5.89C67.52,448.79,70.06,433,73,414.55ZM518.52,492.7v.22a197.4,197.4,0,0,1-4.37,26.61c-2.83,11.26-3.49,16.42-4.14,20.06-.36,2.33-.65,4.22-1.16,6.69-.15.65-.51,1.45-.66,2.32l-.65,2.18c-3.34,11.78-7,23.92-14.83,34.39-14.47,19.48-38.53,24.28-49.36,26.46-23.63,4.43-44.71,1.45-62.88-8.65a86.85,86.85,0,0,1-31.55-30.1c-9.16-15.33-13.16-31.4-11.78-47.76.66-7.63,2.33-27.77,18-41.51,7.63-7,15.77-9.3,29.08-13.15,14.1-4.15,26.24-4.66,35.91-4.66h6.32c6.76.15,12.8.8,24.57,2.19a347.36,347.36,0,0,1,38.6,6.1c2.62.51,5.16,1,7.49,1.38,16.43,3.49,20.06,5.6,21.59,8.8C518.81,484.78,519.32,485.58,518.52,492.7ZM64.1,482.23c2.55-5.3,8.36-7.78,31.91-12.28,9.53-1.82,17.16-3.35,26.61-4.65,3.71-.51,7.85-1,12.36-1.68,11.92-1.31,18-2,24.93-2.18,9.6-.14,25.23-.29,43.55,5,13.45,3.85,22.24,6.32,30.75,14,16.79,15,18.61,36.56,19.26,44.41,2.18,25.23-8.65,43.91-12.43,50A90.36,90.36,0,0,1,208,606.61c-28.49,15.78-56.55,10.84-65.57,9.16-10.61-2.18-36.2-7-52-28.13-5.53-7.27-9-15.27-11.63-23.41-1.53-4.14-2.69-8.36-3.86-12.28-3.34-11.63-1.52-10-6.68-31.48a191.26,191.26,0,0,1-4.44-27.26C63.16,485.07,63.45,483.61,64.1,482.23Zm494,85.71c-.43,3.34-.94,7.49-1.23,12.79a93,93,0,0,0-.15,9.75c.07,1.74.15,3.78.15,7.12-.08,10.4-.29,34.67-8.22,63-2,7.12-4,12.5-8.29,23.91-9.66,25.81-13.23,28.64-15.33,30.32a29,29,0,0,1-11.34,5.45l-3.06.73-4.87,25.07c-1.16,6.18-2.18,11.64-3.05,16.58-1,5.81-1.89,10.9-2.62,15.34-3.56,20.79-4.72,27.77-10.76,39.69-6.1,12.28-20.06,27.62-47.76,58.15l-1.31,1.46c-21.08,23.26-31.18,32.2-41.36,39.91-11.92,8.94-23.19,17.37-40.78,23.55-16.58,5.74-30.75,6.76-45.73,7.85-9.81.73-18.82.44-36.71,0l-2.69-.07c-27.91-.8-41.94-1.16-50.81-3.78-15.34-4.51-25.37-12.07-40.49-23.55-17.74-13.45-32.28-29-41.73-40.28-11.41-13.52-28.64-34-40.93-63-5.88-14-7.41-22.24-11.84-46.6-.15-.72-.22-1.45-.44-2.18-1.09-6.47-2.54-14.1-4.22-23.12-1.16-6-2.18-11.19-3.12-15.84l-1.75-8.8-3.12-.65a31.24,31.24,0,0,1-13-6c-2.1-1.68-5.59-4.58-15.33-30.32-4.29-11.41-6.26-16.79-8.29-23.91-8-28.36-8.14-52.71-8.22-63.47,0-2.9,0-4.94.08-6.68a93,93,0,0,0-.15-9.75c-.29-5.3-.73-9.45-1.16-12.79-.44-3.49-.87-7.2-.29-7.71s1.67-.8,3.2-.8A27.25,27.25,0,0,1,40,561.25a16.9,16.9,0,0,1,3.63,1.82,18.59,18.59,0,0,1,4.8,3.71l8.43,8.5-.14-12c-.15-15.2.29-27.12.58-34.68.14-2.32.29-4.72.43-7.27.95,4.15,1.82,8.65,2.77,13.31,2.32,12.14,5.16,26,8.65,37.36a86,86,0,0,0,5.45,13.67c15.34,30,56.05,43.4,88,43.4h1.38c35.69-.37,60.85-18.47,69.93-26.32.88-.65,20-16.79,38.24-64.84,2.18-5.09,4.22-11.92,1-17.74a13.19,13.19,0,0,0-2.47-3.34,5,5,0,0,1-1.67-2.69,7.33,7.33,0,0,1-.51-2.77,8.15,8.15,0,0,1,.36-2.54c.95-.29,3.49-.8,10.61-1.16,3.49-.15,7.13-.15,12,0h3.78c4.65-.15,8.5-.15,12,0,8.14.36,10.33,1,10.33.65a9.58,9.58,0,0,1,0,5.82,6.14,6.14,0,0,1-1.68,2.69,13.22,13.22,0,0,0-2.54,3.34c-3.13,5.82-1.09,12.65,1,17.74,18.46,48.05,37.43,64.19,38.23,64.84,11.64,9.67,36.13,26,70,26.32,32.42.29,73.78-13,89.27-43.4,3.63-6.84,6.83-16.65,9.67-29.59,1.67-7.2,3.12-14.47,4.5-21.44,1.24-6.18,2.55-12.8,4-18.54.44,4.65.73,8.72.87,12.5.37,6,.73,15.85.73,28.57v15.49l8.14-7.42a18.86,18.86,0,0,1,4.51-3c.73-.29,1.45-.66,2.4-1a36.63,36.63,0,0,1,7.2-1.67c2.47-.29,3.92.22,4.43.72S558.43,564.38,558.06,567.94Z"/></g><g id="beard"><path id="beard-2" data-name="beard" class="cls-1" d="M475.26,798.24c-5.89,8.5-14.32,21.22-23.84,20.21-6.4-.73-10.54-7.49-11.56-9-8.14-12.94,3.49-24.71-1.38-50.16-1.09-5.52-1.6-8.28-3.27-10.39-8-10.54-24.79-1.67-50.89-9.82-10.68-3.27-9.3-5.16-21.3-8.65a8.78,8.78,0,0,0-1.16-.29c-16.43-4.36-34.53-4-34.53-4-20.14.44-18.68,3.93-35,4-16.64,0-15.34-3.63-35.69-4,0,0-17.67-.29-34.24,3.86a14,14,0,0,1-1.53.43c-12,3.49-10.61,5.38-21.22,8.65-26.1,8.15-42.89-.72-51,9.82-1.6,2.11-2.18,4.87-3.2,10.39-4.94,25.45,6.76,37.22-1.38,50.16-1,1.53-5.16,8.29-11.63,9-9.53,1-17.89-11.71-23.77-20.21-5.53-7.93-12.73-17.67-22-29,.22.73.29,1.46.44,2.18C91.58,795.77,93.11,804,99,818c12.29,28.93,29.52,49.43,40.93,63,9.45,11.27,24,26.83,41.73,40.28,15.12,11.48,25.15,19,40.49,23.55,8.87,2.62,22.9,3,50.81,3.78l2.69.07c17.89.44,26.9.73,36.71,0,15-1.09,29.15-2.11,45.73-7.85,17.59-6.18,28.86-14.61,40.78-23.55,10.18-7.71,20.28-16.65,41.36-39.91l1.31-1.46c27.7-30.53,41.66-45.87,47.76-58.15,6-11.92,7.2-18.9,10.76-39.69.73-4.44,1.6-9.53,2.62-15.34A448.9,448.9,0,0,0,475.26,798.24ZM426.19,812c-.72,11.12-3.49,19.19-6.54,27.77-4.65,13.37-8.14,23-15.77,32.85-1.46,1.68-2.69,3.13-4.07,4.51-4.73,4.58-12.51,12.07-31.7,21.74-15.41,7.85-23.12,11.77-31.4,12.28-3.71.29-10.18-.43-23-1.74-9-1-16.43-2-21.59-2.55h-.14c-5.24.58-12.65,1.53-21.59,2.55-12.87,1.31-19.34,2-23.12,1.74-8.22-.51-16-4.43-31.4-12.28-19.12-9.67-26.9-17.16-31.63-21.74-1.38-1.38-2.69-2.83-4.07-4.51-7.63-9.81-11.12-19.48-15.84-32.85-3-8.58-5.89-16.65-6.55-27.77-.58-10.76-1.31-23.41,6.18-29.66,3.78-3.06,6.11-1.75,20.94-5.67,7.85-2.18,11.77-3.78,15.85-5.09,5-1.53,29.73-8.07,63.89-4.73,13.82,1.38,15.78,3.06,27.48,3.06s14.76-1.68,27.34-3.06c5.37-.51,38.16-3.12,63.82,4.73,4.14,1.31,8.07,2.91,15.92,5.09,14.83,3.92,17.16,2.61,20.86,5.67C427.57,788.57,426.85,801.22,426.19,812Z"/><path class="cls-1" d="M293.25,846.2c8.55,0,24.66.56,25.47,4.69a3.67,3.67,0,0,1-.16,1.56c-.88,2.7-4.77,3.69-10,4.69-3.84.73-9,1.57-15.31,2.18h-.07c-6.29-.61-11.47-1.45-15.31-2.18-5.23-1-9.12-2-10-4.69a3.51,3.51,0,0,1-.16-1.56c.8-4.13,16.91-4.66,25.47-4.69Z"/></g><path id="mouth" d="M206.31,790.11c15.25,2.26,29.68,4.59,44.06,6.16a403.61,403.61,0,0,0,85.68,0c14.38-1.56,28.81-3.88,44.07-6.12-12.05,9.68-26.18,16.43-41,21A154.11,154.11,0,0,1,293.21,818a156,156,0,0,1-45.93-6.91C232.5,806.51,218.37,799.77,206.31,790.11Z"/></g></g></svg>